<?xml version="1.0" encoding="UTF-8" standalone="no"?>
<svg
   viewBox="-55 -20 597.335 597.335"
   version="1.1"
   id="svg5"
   sodipodi:docname="shacl_icon.svg"
   inkscape:version="1.3.2 (091e20e, 2023-11-25)"
   xmlns:inkscape="http://www.inkscape.org/namespaces/inkscape"
   xmlns:sodipodi="http://sodipodi.sourceforge.net/DTD/sodipodi-0.dtd"
   xmlns="http://www.w3.org/2000/svg"
   xmlns:svg="http://www.w3.org/2000/svg">
  <defs
     id="defs5" />
  <sodipodi:namedview
     id="namedview5"
     pagecolor="#505050"
     bordercolor="#eeeeee"
     borderopacity="1"
     inkscape:showpageshadow="0"
     inkscape:pageopacity="0"
     inkscape:pagecheckerboard="0"
     inkscape:deskcolor="#505050"
     showgrid="false"
     inkscape:zoom="0.97600171"
     inkscape:cx="298.66751"
     inkscape:cy="298.66751"
     inkscape:window-width="1560"
     inkscape:window-height="796"
     inkscape:window-x="0"
     inkscape:window-y="25"
     inkscape:window-maximized="0"
     inkscape:current-layer="svg5" />
  <mask
     id="m">
    <rect
       y="40.473"
       width="484.862"
       height="484.862"
       fill="white"
       id="rect1" />
    <rect
       y="50.808"
       x="9.477"
       fill="black"
       width="464.192"
       height="329.847"
       id="rect2" />
    <text
       transform="scale(0.93,1)"
       y="498"
       x="47"
       font-family="Verdana"
       font-size="114"
       font-weight="bold"
       fill="black"
       id="text2">SH<tspan
   kerning="-3"
   id="tspan2">A</tspan>CL</text>
    <path
       d="M383.476,267.343c-2.544-1.346-5.14-2.493-7.743-3.516l1.863-0.15c0,0-16.608-7.354-18.057-60.722  c-1.438-53.372,15.828-62.478,15.828-62.478l-2.48,0.109c13.045-6.69,24.265-17.267,31.669-31.216  c19.295-36.291,5.488-81.362-30.81-100.657C337.436-10.563,292.374,3.207,273.09,39.53c-7.927,14.899-10.178,31.273-7.677,46.733  l-0.851-1.306c0,0,4.373,19.365-41.032,47.55c-45.397,28.2-65.877,14.159-65.877,14.159l1.302,1.925  c-1.298-0.803-2.544-1.624-3.901-2.333c-36.306-19.294-81.38-5.509-100.667,30.804c-19.281,36.309-5.489,81.365,30.813,100.668  c27.064,14.364,58.974,10.36,81.461-7.655l-0.487,0.946c0,0,16.531-13.599,64.16,11.973c37.601,20.178,43.184,39.956,43.899,47.383  c-0.983,27.57,13.388,54.618,39.389,68.433c36.301,19.299,81.374,5.498,100.657-30.804  C433.571,331.704,419.786,286.624,383.476,267.343z M299.542,277.128c-6.018,2.129-23.203,4.487-59.389-14.921  c-39.187-21.04-45.005-38.615-45.855-43.891c0.557-6.401,0.202-12.791-0.891-19.02l0.239,0.359c0,0-3.189-17.096,41.65-44.943  c40.133-24.908,58.376-19.955,61.771-18.653c2.185,1.485,4.45,2.867,6.825,4.131c4.518,2.398,9.174,4.283,13.888,5.672  c5.52,5.257,15.678,20.178,16.733,59.413c1.078,39.535-10.533,54.779-16.865,60.168C311.122,268.399,305.022,272.34,299.542,277.128  z"
       fill="white"
       id="path2" />
    <path
       d="M294.631,32.4c-21.659,23.694-22.118,58.544-1.246,78.264c-10.316-9.935-10.093-30.608,0.33-50.387   c1.342-1.774,5.224-5.961,10.898-4.055c0.569,0.194,0.951,0.245,1.17,0.213c1.284,0.278,2.601,0.439,3.96,0.381   c8.622-0.393,15.288-7.684,14.898-16.307c-0.175-3.868-1.78-7.292-4.26-9.92c20.007-13.107,42.968-14.61,52.375-6.016l0.359,0.025   C351.625,4.97,316.493,8.476,294.631,32.4z"
       fill="black"
       id="path3" />
    <path
       d="M76.894,172.52c-21.663,23.694-22.114,58.541-1.251,78.264c-10.313-9.935-10.092-30.608,0.331-50.387   c1.345-1.778,5.231-5.961,10.906-4.055c0.565,0.195,0.946,0.242,1.167,0.212c1.283,0.275,2.603,0.44,3.959,0.377   c8.623-0.392,15.288-7.684,14.899-16.303c-0.179-3.867-1.782-7.296-4.252-9.92c19.995-13.107,42.959-14.617,52.366-6.021   l0.355,0.03C133.891,145.086,98.751,148.591,76.894,172.52z"
       fill="black"
       id="path4" />
    <path
       d="M307.39,291.145c-21.666,23.704-22.118,58.553-1.254,78.276c-10.317-9.935-10.09-30.611,0.331-50.388   c1.344-1.781,5.227-5.96,10.906-4.053c0.568,0.189,0.941,0.242,1.166,0.212c1.282,0.277,2.605,0.44,3.963,0.381   c8.617-0.396,15.28-7.692,14.891-16.32c-0.176-3.864-1.781-7.288-4.252-9.917c20.002-13.103,42.959-14.61,52.37-6.016l0.355,0.029   C364.383,263.718,329.241,267.226,307.39,291.145z"
       fill="black"
       id="path5" />
  </mask>
  <rect
     y="0"
     width="527.335"
     height="527.335"
     fill="currentColor"
     mask="url(#m)"
     id="rect5" />
  <path
     d="m 59.43272,347.66238 q 3.564453,-7.4707 8.496094,-16.40625 4.931641,-8.93554 11.132812,-17.82226 6.25,-8.88672 9.082032,-11.76758 2.880859,-2.92969 4.833984,-4.63867 2.001953,-1.70899 7.031248,-2.49024 5.0293,-0.78125 7.61719,-0.78125 1.70898,0 2.7832,1.07422 1.12305,1.02539 1.12305,2.73438 0,1.31836 -0.63477,2.29492 -0.63476,0.92773 -2.63671,2.83203 -9.619145,8.83789 -20.019536,25.19531 -10.400391,16.35743 -16.503906,31.68946 -2.88086,7.03125 -3.710938,8.25195 -0.830078,1.2207 -2.539062,2.29492 -1.708985,1.02539 -7.03125,1.02539 -4.199219,0 -5.371094,-0.53711 -1.171875,-0.48828 -1.806641,-1.07422 -0.634765,-0.58593 -3.613281,-5.07812 -3.076172,-4.73633 -8.935547,-11.18164 -3.36914,-3.71094 -3.36914,-6.20117 0,-3.61328 3.808593,-6.29883 3.857422,-2.68555 6.78711,-2.68555 3.222656,0 6.884765,2.63672 3.66211,2.58789 6.591797,6.93359 z"
     fill="currentColor"
     id="text5"
     style="font-size:100px"
     aria-label="✔" />
</svg>
